<svg width="60" height="64" viewBox="0 0 60 64" fill="none" xmlns="http://www.w3.org/2000/svg">
<path d="M59.1914 44.5475L59.1927 44.5487C59.4138 44.7699 59.4139 45.1283 59.193 45.3497C59.1929 45.3498 59.1928 45.3499 59.1927 45.35L56.1687 48.3569L56.1686 48.357C56.0639 48.4611 55.9229 48.5202 55.7753 48.5219C55.626 48.5198 55.4833 48.4588 55.3786 48.3519L55.3761 48.3494L53.7398 46.7035L53.4764 46.4385L53.1476 46.6161C48.8951 48.9125 44.139 50.1175 39.3059 50.1229C37.2913 50.1179 35.2824 49.9071 33.3108 49.4936L32.7082 49.3672V49.9829V55.4667V55.9667H33.2082H46.0076C48.6759 55.9698 50.8383 58.1323 50.8415 60.8006V62.9333C50.8415 63.2463 50.5877 63.5 50.2748 63.5H1.20815C0.895219 63.5 0.641479 63.2463 0.641479 62.9333V60.8003C0.644781 58.1321 2.80718 55.9698 5.4754 55.9667H18.2748H18.7748V55.4667V43.0949C18.777 42.758 18.8092 42.4218 18.8709 42.0905L18.9434 41.7011L18.581 41.5414C18.5276 41.5179 18.4788 41.4856 18.4366 41.4461C9.29997 32.2325 7.288 18.1163 13.4874 6.71674L13.6646 6.39095L13.4042 6.12685L11.7765 4.47565L11.7765 4.47564L11.774 4.47317C11.5529 4.25202 11.5528 3.89363 11.7736 3.67231C11.7737 3.67217 11.7739 3.67203 11.774 3.6719L14.798 0.664952L14.7981 0.664904C14.9028 0.560758 15.0439 0.501653 15.1915 0.50002C15.3408 0.502084 15.4834 0.563111 15.5882 0.67001L15.5881 0.670019L15.5907 0.672634L31.7721 16.9382L31.9445 17.1115L32.1871 17.0819L42.1071 15.8713L42.7269 15.7956L42.5176 15.2073C42.3664 14.7822 42.2917 14.3338 42.2971 13.8826C42.322 11.7742 44.0514 10.0852 46.1599 10.1101C48.2683 10.1351 49.9573 11.8645 49.9323 13.9729C49.9073 16.0813 48.1779 17.7702 46.0695 17.7454V17.7453H46.0636H46.0526C45.5951 17.7418 45.142 17.6548 44.7159 17.4884L44.1623 17.2722L44.044 17.8547L42.1699 27.0856L42.1167 27.3476L42.305 27.5373L59.1914 44.5475ZM44.207 12.1116L43.348 12.9661H43.6373C43.5066 13.2797 43.4366 13.6187 43.4348 13.965C43.4273 15.4194 44.6003 16.6044 46.0545 16.612H46.0571H46.0634C46.0634 16.612 46.0634 16.612 46.0635 16.612C46.7596 16.6121 47.4275 16.3366 47.921 15.8457C48.9521 14.8202 48.9568 13.1528 47.9311 12.1217C46.9055 11.0906 45.2381 11.0859 44.207 12.1116ZM42.5387 19.5747L42.8674 17.9564L41.6962 19.1206L38.1485 22.647L37.7938 22.9995L38.1464 23.3541L40.4973 25.7189L41.1559 26.3814L41.3419 25.4659L42.5387 19.5747ZM41.1895 18.0261L42.2229 16.9987L40.7764 17.1751L33.9657 18.0061L32.9506 18.1299L33.6718 18.855L36.6425 21.8417L36.995 22.1961L37.3495 21.8437L41.1895 18.0261ZM49.2082 62.3667H49.7082V61.8667V60.8C49.7082 58.7565 48.0516 57.1 46.0082 57.1H5.47481C3.43134 57.1 1.77481 58.7565 1.77481 60.8V61.8667V62.3667H2.27481H49.2082ZM31.5748 53.3333V52.8333H31.0748H20.4081H19.9081V53.3333V55.4667V55.9667H20.4081H31.0748H31.5748V55.4667V53.3333ZM19.9081 51.2V51.7H20.4081H31.0748H31.5748V51.2V43.0933C31.5748 40.1713 28.8965 37.9 25.7415 37.9C22.5865 37.9 19.9081 40.1713 19.9081 43.0933V51.2ZM32.7082 47.808V48.2077L33.0981 48.2957C39.4991 49.7402 46.2037 48.9025 52.0525 45.9273L52.6644 45.6159L52.1803 45.1291L14.9767 7.71213L14.4917 7.22435L14.1774 7.83619C8.69459 18.509 10.555 31.4815 18.8167 40.1832L19.2613 40.6514L19.6034 40.1039C20.9213 37.9944 23.2468 36.7285 25.7338 36.7666L25.7338 36.7667H25.7415C29.6258 36.7667 32.7082 39.6464 32.7082 43.0933V47.808ZM55.4317 46.7931L55.7842 47.1475L56.1387 46.7952L57.6523 45.2912L58.0071 44.9387L57.6545 44.584L31.4424 18.2184C31.4287 18.2021 31.4101 18.1819 31.3874 18.1618C31.3844 18.1592 31.3812 18.1565 31.3778 18.1536L15.536 2.22238L15.1831 1.86746L14.8286 2.22075L13.3192 3.72475L12.9648 4.07793L13.3182 4.43211L14.8269 5.94396L14.8276 5.94465L53.9287 45.2816L53.9288 45.2816L55.4317 46.7931Z" fill="#2E2F42" stroke="black"/>
</svg>
